<?xml version="1.0" encoding="UTF-8" standalone="no"?>
<!-- Created with Inkscape (http://www.inkscape.org/) -->

<svg
   xmlns:dc="http://purl.org/dc/elements/1.1/"
   xmlns:cc="http://creativecommons.org/ns#"
   xmlns:rdf="http://www.w3.org/1999/02/22-rdf-syntax-ns#"
   xmlns:svg="http://www.w3.org/2000/svg"
   xmlns="http://www.w3.org/2000/svg"
   xmlns:xlink="http://www.w3.org/1999/xlink"
   xmlns:sodipodi="http://sodipodi.sourceforge.net/DTD/sodipodi-0.dtd"
   xmlns:inkscape="http://www.inkscape.org/namespaces/inkscape"
   width="86"
   height="86"
   id="svg2"
   version="1.1"
   inkscape:version="0.48.2 r9819"
   sodipodi:docname="harbour-jopas.svg"
   inkscape:export-filename="C:\Users\Stephan\Desktop\harbour-jopas.png"
   inkscape:export-xdpi="90"
   inkscape:export-ydpi="90">
  <defs
     id="defs4">
    <linearGradient
       id="linearGradient3789">
      <stop
         style="stop-color:#0ac22b;stop-opacity:1;"
         offset="0"
         id="stop3791" />
      <stop
         style="stop-color:#136553;stop-opacity:1;"
         offset="1"
         id="stop3793" />
    </linearGradient>
    <linearGradient
       inkscape:collect="always"
       xlink:href="#linearGradient3789"
       id="linearGradient2994"
       gradientUnits="userSpaceOnUse"
       gradientTransform="matrix(1.4333333,0,0,1.4333333,0,-3.1666667)"
       spreadMethod="pad"
       x1="30"
       y1="11.666667"
       x2="30"
       y2="58.333332" />
  </defs>
  <sodipodi:namedview
     id="base"
     pagecolor="#ffffff"
     bordercolor="#666666"
     borderopacity="1.0"
     inkscape:pageopacity="0.0"
     inkscape:pageshadow="2"
     inkscape:zoom="5.6568542"
     inkscape:cx="-17.588785"
     inkscape:cy="28.979221"
     inkscape:document-units="px"
     inkscape:current-layer="layer2"
     showgrid="true"
     inkscape:window-width="1920"
     inkscape:window-height="1148"
     inkscape:window-x="-8"
     inkscape:window-y="-8"
     inkscape:window-maximized="1"
     inkscape:snap-bbox="true"
     inkscape:snap-global="true">
    <inkscape:grid
       type="xygrid"
       id="grid2985"
       empspacing="5"
       visible="false"
       enabled="true"
       snapvisiblegridlinesonly="true" />
  </sodipodi:namedview>
  <metadata
     id="metadata7">
    <rdf:RDF>
      <cc:Work
         rdf:about="">
        <dc:format>image/svg+xml</dc:format>
        <dc:type
           rdf:resource="http://purl.org/dc/dcmitype/StillImage" />
        <dc:title></dc:title>
      </cc:Work>
    </rdf:RDF>
  </metadata>
  <g
     inkscape:groupmode="layer"
     id="layer2"
     inkscape:label="Ebene"
     style="display:inline"
     transform="translate(0,-4)">
    <path
       style="fill:url(#linearGradient2994);fill-opacity:1.0;stroke:none"
       d="M 43,4 C 19.251756,4 0,23.251756 0,47 L 0,87.790278 C 0,89.01865 0.98134982,90 2.2097222,90 L 43,90 83.790278,90 C 85.01865,90 86,89.01865 86,87.790278 L 86,47 C 86,23.251756 66.748244,4 43,4 z"
       id="path3837"
       inkscape:connector-curvature="0" />
    <g
       transform="matrix(0.12254902,0,0,0.12254902,11.627451,19.688725)"
       id="g25"
       style="fill:#e2ffa4;fill-opacity:1">
      <defs
         id="defs1903" />
      <sodipodi:namedview
         id="base-1"
         pagecolor="#ffffff"
         bordercolor="#666666"
         borderopacity="1.0"
         inkscape:pageopacity="0.0"
         inkscape:pageshadow="2"
         inkscape:zoom="0.5"
         inkscape:cx="-528"
         inkscape:cy="128.71265"
         inkscape:document-units="px"
         inkscape:current-layer="layer1"
         inkscape:window-width="1400"
         inkscape:window-height="1026"
         inkscape:window-x="0"
         inkscape:window-y="24"
         showgrid="false"
         showguides="false"
         inkscape:window-maximized="1"
         fit-margin-top="50"
         fit-margin-left="50"
         fit-margin-right="50"
         fit-margin-bottom="50"
         inkscape:showpageshadow="false" />
      <metadata
         id="metadata1906">
        <rdf:RDF>
          <cc:Work
             rdf:about="">
            <dc:format>image/svg+xml</dc:format>
            <dc:type
               rdf:resource="http://purl.org/dc/dcmitype/StillImage" />
            <dc:title />
          </cc:Work>
        </rdf:RDF>
      </metadata>
      <g
         inkscape:label="Taso 1"
         inkscape:groupmode="layer"
         id="layer1"
         transform="translate(-149.5,-195.875)"
         style="fill:#e2ffa4;fill-opacity:1">
        <path
           style="fill:#e2ffa4;fill-opacity:1;fill-rule:evenodd;stroke:#333333;stroke-width:5;stroke-miterlimit:0;stroke-opacity:1;stroke-dasharray:none"
           d="M 242.09375,225.375 C 220.98635,225.375 204,242.36135 204,263.46875 L 204,588.25 c 0,21.1074 16.98635,38.125 38.09375,38.125 l 25.9375,0 c -0.0124,0.33189 -0.0312,0.66496 -0.0312,1 l 0,24 c 0,14.404 11.596,26 26,26 14.404,0 26,-11.596 26,-26 l 0,-24 c 0,-0.33504 -0.0188,-0.66811 -0.0312,-1 l 174.0625,0 c -0.0124,0.33189 -0.0312,0.66496 -0.0312,1 l 0,24 c 0,14.404 11.596,26 26,26 14.404,0 26,-11.596 26,-26 l 0,-24 c 0,-0.33504 -0.0188,-0.66811 -0.0312,-1 l 22.9375,0 C 590.01365,626.375 607,609.3574 607,588.25 l 0,-324.78125 C 607,242.36135 590.01365,225.375 568.90625,225.375 l -326.8125,0 z m 13.71875,34 299.375,0 c 9.31333,0 16.8125,7.49917 16.8125,16.8125 l 0,206.375 c 0,9.31333 -7.49917,16.8125 -16.8125,16.8125 l -299.375,0 C 246.49917,499.375 239,491.87583 239,482.5625 l 0,-206.375 c 0,-9.31333 7.49917,-16.8125 16.8125,-16.8125 z M 294,538.875 c 14.08326,0 25.5,10.74517 25.5,24 0,13.25483 -11.41674,24 -25.5,24 -14.08326,0 -25.5,-10.74517 -25.5,-24 0,-13.25483 11.41674,-24 25.5,-24 z m 226,0 c 14.08326,0 25.5,10.74517 25.5,24 0,13.25483 -11.41674,24 -25.5,24 -14.08326,0 -25.5,-10.74517 -25.5,-24 0,-13.25483 11.41674,-24 25.5,-24 z"
           id="rect3016"
           inkscape:connector-curvature="0" />
      </g>
    </g>
  </g>
</svg>
